<svg width="32" height="32" viewBox="0 0 32 32" fill="none" xmlns="http://www.w3.org/2000/svg">
  <defs>
    <linearGradient id="bg" x1="0" y1="0" x2="32" y2="32" gradientUnits="userSpaceOnUse">
      <stop stop-color="#141029"/>
      <stop offset="1" stop-color="#08110f"/>
    </linearGradient>
  </defs>
  <rect width="32" height="32" rx="8" fill="url(#bg)"/>
  <rect x="0.5" y="0.5" width="31" height="31" rx="7.5" stroke="#a78bfa" stroke-opacity="0.45"/>
  <g stroke="#c4b5fd" stroke-width="2" stroke-linecap="round" stroke-linejoin="round" fill="none">
    <path d="M16 8.2a3.6 3.6 0 0 0-3.6 3.4 3 3 0 0 0-2.3 4.9 3 3 0 0 0 1.2 5.1 3 3 0 0 0 4.7 1.6V8.2Z"/>
    <path d="M16 8.2a3.6 3.6 0 0 1 3.6 3.4 3 3 0 0 1 2.3 4.9 3 3 0 0 1-1.2 5.1 3 3 0 0 1-4.7 1.6"/>
  </g>
  <g fill="#34f0a8">
    <circle cx="12.4" cy="13" r="1.05"/>
    <circle cx="19.6" cy="17.4" r="1.05"/>
  </g>
  <circle cx="12.4" cy="13" r="2.4" fill="#34f0a8" fill-opacity="0.18"/>
</svg>
